<?xml version="1.0" encoding="utf-8"?>
<!-- Generator: Adobe Illustrator 19.1.0, SVG Export Plug-In . SVG Version: 6.00 Build 0)  -->
<svg version="1.1" id="Layer_1" xmlns="http://www.w3.org/2000/svg" xmlns:xlink="http://www.w3.org/1999/xlink" x="0px" y="0px"
	 viewBox="-105 367 400 60" style="enable-background:new -105 367 400 60;" xml:space="preserve">
<style type="text/css">
	.st0{fill:#FFFFFF;}
	.st1{opacity:0.6;enable-background:new    ;}
	.st2{fill:#FFFFFF;stroke:#FFFFFF;stroke-miterlimit:10;}
</style>
<title>AMP-Brand-White</title>
<desc>Created with Sketch.</desc>
<g id="Updated">
	<path id="Fill-1" class="st0" d="M-11.8,401.3h7.1l-2.4-7c-0.2-0.4-0.3-1-0.5-1.6s-0.4-1.3-0.6-2c-0.2,0.7-0.4,1.4-0.6,2
		s-0.4,1.1-0.6,1.6L-11.8,401.3z M4.9,411.1H0.2c-0.5,0-1-0.1-1.3-0.4c-0.3-0.2-0.6-0.5-0.7-0.9l-1.5-4.5h-9.9l-1.5,4.5
		c-0.1,0.3-0.4,0.6-0.7,0.9s-0.8,0.4-1.3,0.4h-4.7l10.1-25.6h6.2L4.9,411.1z"/>
	<path id="Fill-3" class="st0" d="M26,400.7c0.2,0.5,0.4,1,0.6,1.5c0.2-0.5,0.4-1,0.6-1.5s0.5-1,0.7-1.4l6.7-13
		c0.1-0.2,0.2-0.4,0.4-0.5c0.1-0.1,0.3-0.2,0.4-0.3c0.2-0.1,0.3-0.1,0.5-0.1h0.7h4.6V411h-5.3v-14.7c0-0.7,0-1.5,0.1-2.3l-6.9,13.2
		c-0.2,0.4-0.5,0.7-0.9,0.9c-0.4,0.2-0.8,0.3-1.2,0.3h-0.8c-0.5,0-0.9-0.1-1.2-0.3c-0.4-0.2-0.7-0.5-0.9-0.9L17.2,394
		c0,0.4,0.1,0.8,0.1,1.2c0,0.4,0,0.8,0,1.1V411H12v-25.6h4.6h0.7c0.2,0,0.4,0,0.5,0.1s0.3,0.1,0.4,0.3c0.1,0.1,0.2,0.3,0.4,0.5
		l6.7,13C25.5,399.8,25.8,400.3,26,400.7"/>
	<path id="Fill-5" class="st0" d="M56.5,398h3.1c1.6,0,2.7-0.4,3.4-1.1s1-1.8,1-3.1c0-0.6-0.1-1.1-0.3-1.6c-0.2-0.5-0.4-0.9-0.8-1.2
		c-0.4-0.3-0.8-0.6-1.4-0.8c-0.6-0.2-1.2-0.3-2-0.3h-3V398z M56.5,402.5v8.6h-6v-25.6h9.2c1.8,0,3.4,0.2,4.7,0.6
		c1.3,0.4,2.4,1,3.2,1.8c0.8,0.8,1.5,1.6,1.9,2.7c0.4,1,0.6,2.1,0.6,3.3c0,1.3-0.2,2.4-0.6,3.5s-1.1,2-1.9,2.7
		c-0.9,0.8-1.9,1.4-3.3,1.8c-1.3,0.4-2.9,0.6-4.7,0.6H56.5z"/>
	<path id="Fill-7" class="st0" d="M-64.2,394.3l-12.7,20.9h-2.3l2.3-13.6H-84h-0.1c-0.6,0-1.2-0.5-1.2-1.1c0-0.3,0.3-0.7,0.3-0.7
		l12.7-20.9h2.3l-2.3,13.7h7.1h0.1c0.6,0,1.2,0.5,1.2,1.1C-64,393.8-64.1,394.1-64.2,394.3L-64.2,394.3z M-74.6,367
		c-16.8,0-30.4,13.4-30.4,30s13.6,30,30.4,30s30.4-13.4,30.4-30S-57.8,367-74.6,367L-74.6,367z"/>
</g>
<g class="st1">
	<path class="st2" d="M85.1,411v-25h7.6c2.8,0,4.9,0.6,6.3,1.7c1.4,1.1,2.1,2.7,2.1,4.9c0,1.3-0.4,2.4-1.1,3.4s-1.7,1.6-3,2.1
		c1.5,0.3,2.7,1,3.6,2.1c0.9,1.1,1.4,2.4,1.4,3.8c0,2.2-0.7,3.9-2.2,5.2s-3.5,1.9-6.1,1.9H85.1z M87.3,397.2h5.9
		c1.8,0,3.2-0.5,4.2-1.2c1-0.8,1.5-2,1.5-3.5c0-1.6-0.5-2.8-1.5-3.6c-1-0.8-2.6-1.1-4.7-1.1h-5.4V397.2z M87.3,399v10.2h6.5
		c1.9,0,3.3-0.5,4.4-1.4c1.1-0.9,1.6-2.2,1.6-3.8c0-1.5-0.5-2.8-1.6-3.7c-1-0.9-2.5-1.3-4.3-1.3H87.3z"/>
	<path class="st2" d="M113.9,399.6l7.9-13.6h2.5l-9.3,15.6v9.4h-2.2v-9.4l-9.3-15.6h2.6L113.9,399.6z"/>
	<path class="st2" d="M151.1,399h-12v10.2h13.8v1.8h-16v-25h15.9v1.8H139v9.4h12V399z"/>
	<path class="st2" d="M165.3,396.6l7.3-10.6h2.6l-8.5,12.3l8.8,12.7h-2.6l-7.5-10.9l-7.5,10.9h-2.6l8.8-12.7l-8.5-12.3h2.6
		L165.3,396.6z"/>
	<path class="st2" d="M193.5,404h-11.7l-2.7,7h-2.3l9.7-25h2.1l9.7,25h-2.3L193.5,404z M182.5,402.2h10.3l-5.2-13.6L182.5,402.2z"/>
	<path class="st2" d="M205.1,386l9.5,22.1l9.5-22.1h2.9v25h-2.2v-10.9l0.2-11.2l-9.6,22h-1.7l-9.6-22l0.2,11v11h-2.2v-25H205.1z"/>
	<path class="st2" d="M235.8,400.8V411h-2.2v-25h8.8c2.7,0,4.8,0.7,6.3,2c1.5,1.3,2.3,3.2,2.3,5.5c0,2.3-0.7,4.2-2.2,5.4
		c-1.5,1.3-3.7,1.9-6.5,1.9H235.8z M235.8,399h6.6c2.1,0,3.7-0.5,4.8-1.5c1.1-1,1.7-2.3,1.7-4.1c0-1.7-0.6-3.1-1.7-4.1
		c-1.1-1-2.7-1.6-4.7-1.6h-6.7V399z"/>
	<path class="st2" d="M258.1,409.2h12.7v1.8h-14.9v-25h2.2V409.2z"/>
	<path class="st2" d="M289.2,399h-12v10.2H291v1.8h-16v-25h15.9v1.8h-13.8v9.4h12V399z"/>
</g>
</svg>
