<svg xmlns="http://www.w3.org/2000/svg" xmlns:xlink="http://www.w3.org/1999/xlink" version="1.1" width="24" height="24" enable-background="new 0 0 24 24" xml:space="preserve"><rect id="backgroundrect" width="100%" height="100%" x="0" y="0" fill="none" stroke="none"/>








<g class="currentLayer" style=""><title>Layer 1</title><g id="Header_x2F_BG" display="none" class="selected" stroke="#ffffff" stroke-opacity="1" fill="#b60845" fill-opacity="1">
	<rect x="-182" y="-50" display="inline" fill="#b60845" width="520" height="520" id="svg_1" stroke="#ffffff" stroke-opacity="1" fill-opacity="1"/>
</g><g id="Bounding_Boxes" class="selected" stroke="#ffffff" stroke-opacity="1" fill="#b60845" fill-opacity="1">
	<g id="ui_x5F_spec_x5F_header_copy_3" stroke="#ffffff" stroke-opacity="1" fill="#b60845" fill-opacity="1">
	</g>
	<path fill="#b60845" d="M0,0h24v24H0V0z" id="svg_2" stroke="#ffffff" stroke-opacity="1" fill-opacity="1"/>
</g><g id="Rounded" display="none" class="selected" stroke="#ffffff" stroke-opacity="1" fill="#b60845" fill-opacity="1">
	<g id="ui_x5F_spec_x5F_header_copy_5" display="inline" stroke="#ffffff" stroke-opacity="1" fill="#b60845" fill-opacity="1">
	</g>
	<g display="inline" id="svg_3" stroke="#ffffff" stroke-opacity="1" fill="#b60845" fill-opacity="1">
		<circle cx="12" cy="4" r="2" id="svg_4" stroke="#ffffff" stroke-opacity="1" fill="#b60845" fill-opacity="1"/>
		<g id="svg_5" stroke="#ffffff" stroke-opacity="1" fill="#b60845" fill-opacity="1">
			<path d="M19,11.9L19,11.9c0-0.49-0.36-0.89-0.84-0.97c-1.25-0.21-2.43-0.88-3.23-1.76l-1.29-1.43c-0.17-0.19-0.38-0.34-0.61-0.45     c-0.01,0-0.01-0.01-0.02-0.01H13c-0.37-0.21-0.78-0.31-1.25-0.25C10.73,7.15,10,8.07,10,9.1l0,5.9c0,1.1,0.9,2,2,2h5v4     c0,0.55,0.45,1,1,1h0c0.55,0,1-0.45,1-1v-4.5c0-1.1-0.9-2-2-2h-3v-3.45c1,0.83,2.4,1.54,3.8,1.82C18.42,13,19,12.53,19,11.9z      M12.83,18c-0.41,1.16-1.52,2-2.83,2c-1.66,0-3-1.34-3-3c0-1.31,0.84-2.41,2-2.83V12.1c-2.28,0.46-4,2.48-4,4.9     c0,2.76,2.24,5,5,5c2.42,0,4.44-1.72,4.9-4H12.83z" id="svg_6" stroke="#ffffff" stroke-opacity="1" fill="#b60845" fill-opacity="1"/>
		</g>
	</g>
</g><g id="Sharp" display="none" class="selected" stroke="#ffffff" stroke-opacity="1" fill="#b60845" fill-opacity="1">
	<g id="ui_x5F_spec_x5F_header_copy_4" display="inline" stroke="#ffffff" stroke-opacity="1" fill="#b60845" fill-opacity="1">
	</g>
	<g display="inline" id="svg_7" stroke="#ffffff" stroke-opacity="1" fill="#b60845" fill-opacity="1">
		<circle cx="12" cy="4" r="2" id="svg_8" stroke="#ffffff" stroke-opacity="1" fill="#b60845" fill-opacity="1"/>
		<g id="svg_9" stroke="#ffffff" stroke-opacity="1" fill="#b60845" fill-opacity="1">
			<path d="M19,13v-2c-1.54,0.02-3.09-0.75-4.07-1.83l-1.29-1.43c-0.17-0.19-0.38-0.34-0.61-0.45c-0.01,0-0.01-0.01-0.02-0.01H13     c-0.37-0.21-0.78-0.31-1.25-0.25C10.73,7.15,10,8.07,10,9.1l0,7.9h7v5h2v-7.5h-5v-3.45C15.29,12.12,17.25,12.99,19,13z M12.83,18     c-0.41,1.16-1.52,2-2.83,2c-1.66,0-3-1.34-3-3c0-1.31,0.84-2.41,2-2.83V12.1c-2.28,0.46-4,2.48-4,4.9c0,2.76,2.24,5,5,5     c2.42,0,4.44-1.72,4.9-4H12.83z" id="svg_10" stroke="#ffffff" stroke-opacity="1" fill="#b60845" fill-opacity="1"/>
		</g>
	</g>
</g><g id="Outline" class="selected" stroke="#ffffff" stroke-opacity="1" fill="#b60845" fill-opacity="1">
	<g id="ui_x5F_spec_x5F_header" stroke="#ffffff" stroke-opacity="1" fill="#b60845" fill-opacity="1">
	</g>
	<g id="svg_11" stroke="#ffffff" stroke-opacity="1" fill="#b60845" fill-opacity="1">
		<g id="svg_12" stroke="#ffffff" stroke-opacity="1" fill="#b60845" fill-opacity="1">
			<circle cx="12" cy="4" r="2" id="svg_13" stroke="#ffffff" stroke-opacity="1" fill="#b60845" fill-opacity="1"/>
		</g>
		<g id="svg_14" stroke="#ffffff" stroke-opacity="1" fill="#b60845" fill-opacity="1">
			<path d="M19,13v-2c-1.54,0.02-3.09-0.75-4.07-1.83l-1.29-1.43c-0.17-0.19-0.38-0.34-0.61-0.45c-0.01,0-0.01-0.01-0.02-0.01H13     c-0.35-0.2-0.75-0.3-1.19-0.26C10.76,7.11,10,8.04,10,9.09V15c0,1.1,0.9,2,2,2h5v5h2v-5.5c0-1.1-0.9-2-2-2h-3v-3.45     C15.29,12.12,17.25,12.99,19,13z" id="svg_15" stroke="#ffffff" stroke-opacity="1" fill="#b60845" fill-opacity="1"/>
		</g>
		<g id="svg_16" stroke="#ffffff" stroke-opacity="1" fill="#b60845" fill-opacity="1">
			<path d="M10,20c-1.66,0-3-1.34-3-3c0-1.31,0.84-2.41,2-2.83V12.1c-2.28,0.46-4,2.48-4,4.9c0,2.76,2.24,5,5,5     c2.42,0,4.44-1.72,4.9-4h-2.07C12.42,19.16,11.31,20,10,20z" id="svg_17" stroke="#ffffff" stroke-opacity="1" fill="#b60845" fill-opacity="1"/>
		</g>
	</g>
</g><g id="Duotone" display="none" class="selected" stroke="#ffffff" stroke-opacity="1" fill="#b60845" fill-opacity="1">
	<g id="ui_x5F_spec_x5F_header_copy_2" display="inline" stroke="#ffffff" stroke-opacity="1" fill="#b60845" fill-opacity="1">
	</g>
	<g display="inline" id="svg_18" stroke="#ffffff" stroke-opacity="1" fill="#b60845" fill-opacity="1">
		<circle cx="12" cy="4" r="2" id="svg_19" stroke="#ffffff" stroke-opacity="1" fill="#b60845" fill-opacity="1"/>
		<g id="svg_20" stroke="#ffffff" stroke-opacity="1" fill="#b60845" fill-opacity="1">
			<path d="M19,13v-2c-1.54,0.02-3.09-0.75-4.07-1.83l-1.29-1.43c-0.17-0.19-0.38-0.34-0.61-0.45c-0.01,0-0.01-0.01-0.02-0.01H13     c-0.35-0.2-0.75-0.3-1.19-0.26C10.76,7.11,10,8.04,10,9.09V15c0,1.1,0.9,2,2,2h5v5h2v-5.5c0-1.1-0.9-2-2-2h-3v-3.45     C15.29,12.12,17.25,12.99,19,13z M12.83,18c-0.41,1.16-1.52,2-2.83,2c-1.66,0-3-1.34-3-3c0-1.31,0.84-2.41,2-2.83V12.1     c-2.28,0.46-4,2.48-4,4.9c0,2.76,2.24,5,5,5c2.42,0,4.44-1.72,4.9-4H12.83z" id="svg_21" stroke="#ffffff" stroke-opacity="1" fill="#b60845" fill-opacity="1"/>
		</g>
	</g>
</g><g id="Fill" display="none" class="selected" stroke="#ffffff" stroke-opacity="1" fill="#b60845" fill-opacity="1">
	<g id="ui_x5F_spec_x5F_header_copy" display="inline" stroke="#ffffff" stroke-opacity="1" fill="#b60845" fill-opacity="1">
	</g>
	<g display="inline" id="svg_22" stroke="#ffffff" stroke-opacity="1" fill="#b60845" fill-opacity="1">
		<circle cx="12" cy="4" r="2" id="svg_23" stroke="#ffffff" stroke-opacity="1" fill="#b60845" fill-opacity="1"/>
		<g id="svg_24" stroke="#ffffff" stroke-opacity="1" fill="#b60845" fill-opacity="1">
			<path d="M19,13v-2c-1.54,0.02-3.09-0.75-4.07-1.83l-1.29-1.43c-0.17-0.19-0.38-0.34-0.61-0.45c-0.01,0-0.01-0.01-0.02-0.01H13     c-0.35-0.2-0.75-0.3-1.19-0.26C10.76,7.11,10,8.04,10,9.09V15c0,1.1,0.9,2,2,2h5v5h2v-5.5c0-1.1-0.9-2-2-2h-3v-3.45     C15.29,12.12,17.25,12.99,19,13z M12.83,18c-0.41,1.16-1.52,2-2.83,2c-1.66,0-3-1.34-3-3c0-1.31,0.84-2.41,2-2.83V12.1     c-2.28,0.46-4,2.48-4,4.9c0,2.76,2.24,5,5,5c2.42,0,4.44-1.72,4.9-4H12.83z" id="svg_25" stroke="#ffffff" stroke-opacity="1" fill="#b60845" fill-opacity="1"/>
		</g>
	</g>
</g><g id="nyt_x5F_exporter_x5F_info" display="none" class="selected" stroke="#ffffff" stroke-opacity="1" fill="#b60845" fill-opacity="1">
	<g display="inline" id="svg_26" stroke="#ffffff" stroke-opacity="1" fill="#b60845" fill-opacity="1">
	</g>
</g></g></svg>