<svg height="62" viewBox="0 0 62 62" width="62" xmlns="http://www.w3.org/2000/svg"><path d="m41.6288667 28.1614333-13.0045 21.6421334h-2.356l2.3291333-14.1019-7.2137.0093s-.0682.0020666-.1002333.0020666c-.6499667 0-1.1759334-.5259666-1.1759334-1.1759333 0-.279.2593667-.7512333.2593667-.7512333l12.9621333-21.6163 2.3952667.0103333-2.3880333 14.1236 7.2509-.0093s.0775-.0010333.1147-.0010333c.6499666 0 1.1759333.5259666 1.1759333 1.1759333 0 .2635-.1033333.4949667-.2500667.6913zm-10.6288667-28.1614333c-17.1213 0-31 13.8797333-31 31 0 17.1213 13.8787 31 31 31 17.1202667 0 31-13.8787 31-31 0-17.1202667-13.8797333-31-31-31z" fill="#fff" fill-rule="evenodd"/></svg>