<svg height="26" viewBox="0 0 172 26" width="172" xmlns="http://www.w3.org/2000/svg"><g fill-rule="evenodd"><path d="m40.047 14.824h2.994l-1.008-3.024-.23-.679c-.087-.26-.174-.542-.26-.845a15.04 15.04 0 0 1 -.488 1.539l-1.008 3.01zm7.04 4.223h-1.97a.906.906 0 0 1 -.545-.155.801.801 0 0 1 -.298-.398l-.646-1.926h-4.168l-.647 1.926a.85.85 0 0 1 -.293.383.84.84 0 0 1 -.534.17h-1.986l4.243-11.047h2.602l4.243 11.047zm8.807-4.459c.092.208.181.42.267.638a11.935 11.935 0 0 1 .564-1.26l2.813-5.586a.933.933 0 0 1 .154-.224.504.504 0 0 1 .177-.118.608.608 0 0 1 .222-.038h2.23v11.04h-2.241v-6.354c0-.308.015-.642.045-1.001l-2.904 5.679a.96.96 0 0 1 -.365.402 1 1 0 0 1 -.522.136h-.347a1 1 0 0 1 -.522-.136.96.96 0 0 1 -.365-.402l-2.919-5.686a9.627 9.627 0 0 1 .06 1.008v6.354h-2.241v-11.04h2.23a.61.61 0 0 1 .222.038.508.508 0 0 1 .177.118.933.933 0 0 1 .154.224l2.82 5.609c.101.192.198.392.29.6m12.649-1.168h1.324c.662 0 1.139-.159 1.43-.478.29-.318.436-.763.436-1.334 0-.253-.038-.483-.113-.69a1.408 1.408 0 0 0 -.342-.534 1.54 1.54 0 0 0 -.58-.345 2.544 2.544 0 0 0 -.83-.122h-1.325zm0 1.934v3.692h-2.542v-11.047h3.866c.773 0 1.436.092 1.99.277.554.184 1.01.438 1.369.762.359.323.623.705.793 1.145s.256.915.256 1.425c0 .551-.088 1.057-.263 1.516-.176.46-.444.855-.805 1.183-.36.329-.819.585-1.373.77s-1.21.277-1.967.277zm-51.225-3.547-5.41 9.074h-.98l.969-5.913-3 .004-.043.001a.491.491 0 0 1 -.489-.493c0-.117.108-.315.108-.315l5.392-9.064.997.004-.994 5.922 3.016-.003.048-.001c.27 0 .49.22.49.493 0 .11-.044.208-.105.29zm-4.422-11.808c-7.122 0-12.895 5.82-12.895 12.998 0 7.179 5.773 12.998 12.895 12.998s12.895-5.82 12.895-12.998c0-7.179-5.773-12.998-12.895-12.998z"/><path d="m85.55 11.05c-1.26 0-2.34.54-3 1.56v-4.74h-1.065v11.13h1.02v-1.56c.645 1.065 1.74 1.635 3.045 1.635 2.25 0 3.93-1.635 3.93-4.02s-1.68-4.005-3.93-4.005zm-.075 7.08c-1.68 0-2.94-1.23-2.94-3.075s1.26-3.075 2.94-3.075c1.665 0 2.94 1.23 2.94 3.075s-1.275 3.075-2.94 3.075zm11.822-7.02-2.97 6.705-2.97-6.705h-1.11l3.525 7.875-.345.765c-.45.99-.93 1.32-1.635 1.32-.57 0-1.05-.21-1.44-.6l-.495.795c.48.48 1.185.72 1.92.72 1.125 0 1.965-.495 2.625-2.04l3.945-8.835zm8.425 6.93v-3.9h5.43v-.945h-5.43v-3.735h6.09v-.96h-7.2v10.5h7.425v-.96zm15.019.96-3.15-4.05 2.97-3.84h-1.17l-2.37 3.09-2.37-3.09h-1.2l2.97 3.84-3.12 4.05h1.2l2.52-3.3 2.505 3.3zm4.672-7.95c-1.245 0-2.415.39-3.21 1.065l.48.795c.645-.57 1.605-.93 2.625-.93 1.47 0 2.235.735 2.235 2.085v.48h-2.505c-2.265 0-3.045 1.02-3.045 2.235 0 1.365 1.095 2.295 2.88 2.295 1.305 0 2.235-.495 2.715-1.305v1.23h1.02v-4.89c0-2.04-1.155-3.06-3.195-3.06zm-.375 7.185c-1.26 0-1.995-.57-1.995-1.485 0-.81.495-1.41 2.025-1.41h2.475v1.29c-.42 1.035-1.305 1.605-2.505 1.605zm16.602-7.185c-1.424 0-2.55.645-3.12 1.665-.48-1.11-1.5-1.665-2.804-1.665-1.32 0-2.34.555-2.895 1.5v-1.44h-1.02v7.89h1.065v-4.14c0-1.8 1.035-2.85 2.64-2.85 1.44 0 2.28.855 2.28 2.52v4.47h1.065v-4.14c0-1.8 1.02-2.85 2.64-2.85 1.425 0 2.265.855 2.265 2.52v4.47h1.065v-4.575c0-2.265-1.26-3.375-3.18-3.375zm10.434 0c-1.305 0-2.4.57-3.045 1.62v-1.56h-1.02v10.8h1.065v-4.395c.66 1.02 1.74 1.56 3 1.56 2.25 0 3.93-1.62 3.93-4.02 0-2.385-1.68-4.005-3.93-4.005zm-.075 7.08c-1.68 0-2.94-1.23-2.94-3.075 0-1.83 1.26-3.075 2.94-3.075 1.665 0 2.94 1.245 2.94 3.075 0 1.845-1.275 3.075-2.94 3.075zm6.476.87h1.065v-11.13h-1.065zm11.228-3.945c0-2.37-1.605-4.005-3.825-4.005s-3.855 1.665-3.855 4.005 1.68 4.02 4.14 4.02c1.245 0 2.34-.45 3.045-1.29l-.6-.69c-.6.69-1.455 1.035-2.415 1.035-1.725 0-2.985-1.095-3.105-2.745h6.6c0-.12.015-.24.015-.33zm-3.825-3.09c1.545 0 2.67 1.08 2.805 2.625h-5.595c.135-1.545 1.26-2.625 2.79-2.625z"/></g></svg>