<svg xmlns="http://www.w3.org/2000/svg" width="24" height="24" viewBox="0 0 54 54"><title>instagram</title><path d="M27.2 6.1c-5.1 0-5.8 0-7.8.1s-3.4.4-4.6.9c-1.2.5-2.3 1.1-3.3 2.2-1.1 1-1.7 2.1-2.2 3.3-.5 1.2-.8 2.6-.9 4.6-.1 2-.1 2.7-.1 7.8s0 5.8.1 7.8.4 3.4.9 4.6c.5 1.2 1.1 2.3 2.2 3.3 1 1.1 2.1 1.7 3.3 2.2 1.2.5 2.6.8 4.6.9 2 .1 2.7.1 7.8.1s5.8 0 7.8-.1 3.4-.4 4.6-.9c1.2-.5 2.3-1.1 3.3-2.2 1.1-1 1.7-2.1 2.2-3.3.5-1.2.8-2.6.9-4.6.1-2 .1-2.7.1-7.8s0-5.8-.1-7.8-.4-3.4-.9-4.6c-.5-1.2-1.1-2.3-2.2-3.3-1-1.1-2.1-1.7-3.3-2.2-1.2-.5-2.6-.8-4.6-.9-2-.1-2.7-.1-7.8-.1zm0 3.4c5 0 5.6 0 7.6.1 1.9.1 2.9.4 3.5.7.9.3 1.6.7 2.2 1.4.7.6 1.1 1.3 1.4 2.2.3.6.6 1.6.7 3.5.1 2 .1 2.6.1 7.6s0 5.6-.1 7.6c-.1 1.9-.4 2.9-.7 3.5-.3.9-.7 1.6-1.4 2.2-.7.7-1.3 1.1-2.2 1.4-.6.3-1.7.6-3.5.7-2 .1-2.6.1-7.6.1-5.1 0-5.7 0-7.7-.1-1.8-.1-2.9-.4-3.5-.7-.9-.3-1.5-.7-2.2-1.4-.7-.7-1.1-1.3-1.4-2.2-.3-.6-.6-1.7-.7-3.5 0-2-.1-2.6-.1-7.6 0-5.1.1-5.7.1-7.7.1-1.8.4-2.8.7-3.5.3-.9.7-1.5 1.4-2.2.7-.6 1.3-1.1 2.2-1.4.6-.3 1.6-.6 3.5-.7h7.7zm0 5.8c-5.4 0-9.7 4.3-9.7 9.7 0 5.4 4.3 9.7 9.7 9.7 5.4 0 9.7-4.3 9.7-9.7 0-5.4-4.3-9.7-9.7-9.7zm0 16c-3.5 0-6.3-2.8-6.3-6.3s2.8-6.3 6.3-6.3 6.3 2.8 6.3 6.3-2.8 6.3-6.3 6.3zm12.4-16.4c0 1.3-1.1 2.3-2.3 2.3-1.3 0-2.3-1-2.3-2.3 0-1.2 1-2.3 2.3-2.3 1.2 0 2.3 1.1 2.3 2.3z" class="ampstart-icon ampstart-icon-instagram"/></svg>