<svg xmlns="http://www.w3.org/2000/svg" viewBox="0 0 24 24" width="24" height="24">
    <path d="M13.299,2.004c-0.215-0.017-0.455,0.023-0.672,0.096c-0.868,0.29-1.322,1.22-1.032,2.087l0.696,2.039l-3.935,1.32 L7.708,5.579c-0.29-0.868-1.22-1.322-2.087-1.032c-0.868,0.29-1.346,1.22-1.056,2.087l0.648,1.944L3.173,9.274 c-0.868,0.29-1.322,1.244-1.032,2.111s1.22,1.322,2.087,1.032l2.039-0.672l1.32,3.911l-1.968,0.648 c-0.868,0.29-1.322,1.22-1.032,2.087c0.29,0.868,1.22,1.346,2.087,1.056L8.62,18.8l0.696,2.039c0.29,0.868,1.244,1.322,2.111,1.032 c0.868-0.29,1.321-1.22,1.032-2.087l-0.672-2.039l3.911-1.32l0.648,1.968c0.29,0.868,1.22,1.322,2.087,1.032 c0.868-0.29,1.345-1.22,1.056-2.087l-0.648-1.944l2.039-0.696c0.868-0.29,1.322-1.244,1.032-2.111 c-0.29-0.868-1.22-1.322-2.087-1.032l-2.039,0.672l-1.32-3.911l1.968-0.648c0.868-0.29,1.322-1.22,1.032-2.087 c-0.29-0.868-1.22-1.346-2.087-1.056l-1.944,0.648l-0.696-2.039C14.521,2.481,13.942,2.054,13.299,2.004z M13.323,9.37l1.32,3.911 l-3.911,1.32l-1.32-3.911L13.323,9.37z" class="ampstart-icon"/>
</svg>