<svg xmlns="http://www.w3.org/2000/svg" width="24" height="25" viewBox="0 0 19 20"><title>WordPress_logo Copy</title><g transform="translate(0 .5)" fill="none" fill-rule="evenodd"><ellipse fill="#000" cx="9.537" cy="9.537" rx="9.382" ry="9.382" class="ampstart-icon"/><g fill="#FFF"><path d="M1.345 9.463a8.12 8.12 0 0 0 4.575 7.306L2.048 6.16a8.087 8.087 0 0 0-.703 3.304zm13.599-.41c0-1.003-.36-1.698-.67-2.239-.411-.668-.797-1.235-.797-1.903 0-.747.566-1.441 1.363-1.441.036 0 .07.004.105.006a8.088 8.088 0 0 0-5.482-2.13A8.108 8.108 0 0 0 2.68 5.003c.19.006.37.01.523.01.849 0 2.163-.103 2.163-.103.438-.026.49.617.052.669 0 0-.44.051-.929.077l2.957 8.793 1.776-5.328-1.265-3.465c-.437-.026-.851-.078-.851-.078-.437-.025-.386-.694.051-.668 0 0 1.34.103 2.139.103.849 0 2.163-.103 2.163-.103.438-.026.49.617.052.668 0 0-.44.052-.929.078l2.934 8.726.81-2.705c.35-1.123.618-1.93.618-2.625z"/><path d="M9.606 10.173L7.17 17.251a8.118 8.118 0 0 0 4.99-.13.713.713 0 0 1-.059-.112l-2.495-6.836zm6.981-4.605c.034.259.054.536.054.835 0 .824-.154 1.75-.617 2.908l-2.48 7.17a8.115 8.115 0 0 0 4.037-7.018c0-1.411-.36-2.739-.994-3.895z"/><path d="M9.5 0C4.262 0 0 4.262 0 9.5 0 14.739 4.262 19 9.5 19S19 14.739 19 9.5C19 4.262 14.738 0 9.5 0zm0 18.565C4.502 18.565.436 14.498.436 9.5.436 4.502 4.502.436 9.5.436c4.997 0 9.063 4.066 9.063 9.064s-4.066 9.065-9.063 9.065z"/></g></g></svg>